<?xml version="1.0" encoding="UTF-8" standalone="no"?>
<svg
   xmlns:osb="http://www.openswatchbook.org/uri/2009/osb"
   xmlns:dc="http://purl.org/dc/elements/1.1/"
   xmlns:cc="http://creativecommons.org/ns#"
   xmlns:rdf="http://www.w3.org/1999/02/22-rdf-syntax-ns#"
   xmlns:svg="http://www.w3.org/2000/svg"
   xmlns="http://www.w3.org/2000/svg"
   xmlns:sodipodi="http://sodipodi.sourceforge.net/DTD/sodipodi-0.dtd"
   xmlns:inkscape="http://www.inkscape.org/namespaces/inkscape"
   width="210mm"
   height="297mm"
   viewBox="0 0 210 297"
   version="1.1"
   id="svg8"
   inkscape:version="1.0.1 (1.0.1+r73)"
   sodipodi:docname="edited_plots.svg">
  <defs
     id="defs2">
    <rect
       x="-91.856021"
       y="39.087669"
       width="81.106912"
       height="38.110477"
       id="rect5243" />
    <rect
       x="-221.82252"
       y="-19.543834"
       width="176.8717"
       height="90.878829"
       id="rect5237" />
    <rect
       x="-199.34711"
       y="0.97719171"
       width="158.30506"
       height="45.92801"
       id="rect5231" />
    <linearGradient
       id="linearGradient5225"
       osb:paint="solid">
      <stop
         style="stop-color:#ff9900;stop-opacity:1;"
         offset="0"
         id="stop5223" />
    </linearGradient>
    <style
       type="text/css"
       id="style4">*{stroke-linecap:butt;stroke-linejoin:round;}</style>
    <clipPath
       id="p77ed300cb5">
      <rect
         height="291.16"
         width="302.875"
         x="47.720001"
         y="26.879999"
         id="rect788" />
    </clipPath>
    <clipPath
       id="clipPath814">
      <rect
         height="291.16"
         width="302.875"
         x="47.720001"
         y="26.879999"
         id="rect812" />
    </clipPath>
    <clipPath
       id="clipPath818">
      <rect
         height="291.16"
         width="302.875"
         x="47.720001"
         y="26.879999"
         id="rect816" />
    </clipPath>
    <clipPath
       id="clipPath822">
      <rect
         height="291.16"
         width="302.875"
         x="47.720001"
         y="26.879999"
         id="rect820" />
    </clipPath>
    <clipPath
       id="clipPath826">
      <rect
         height="291.16"
         width="302.875"
         x="47.720001"
         y="26.879999"
         id="rect824" />
    </clipPath>
    <clipPath
       id="clipPath830">
      <rect
         height="291.16"
         width="302.875"
         x="47.720001"
         y="26.879999"
         id="rect828" />
    </clipPath>
    <clipPath
       id="pd8b55f1843">
      <rect
         height="291.16"
         width="302.875"
         x="398.405"
         y="26.879999"
         id="rect791" />
    </clipPath>
    <clipPath
       id="clipPath836">
      <rect
         height="291.16"
         width="302.875"
         x="398.405"
         y="26.879999"
         id="rect834" />
    </clipPath>
    <clipPath
       id="clipPath840">
      <rect
         height="291.16"
         width="302.875"
         x="398.405"
         y="26.879999"
         id="rect838" />
    </clipPath>
    <clipPath
       id="clipPath844">
      <rect
         height="291.16"
         width="302.875"
         x="398.405"
         y="26.879999"
         id="rect842" />
    </clipPath>
    <clipPath
       id="clipPath848">
      <rect
         height="291.16"
         width="302.875"
         x="398.405"
         y="26.879999"
         id="rect846" />
    </clipPath>
    <clipPath
       id="clipPath852">
      <rect
         height="291.16"
         width="302.875"
         x="398.405"
         y="26.879999"
         id="rect850" />
    </clipPath>
    <path
       d="M 0,0 V 3.5"
       id="md8046171d6"
       style="stroke:#000000;stroke-width:0.8" />
    <path
       d="m 31.78125,66.40625 q -7.609375,0 -11.453125,-7.5 Q 16.5,51.421875 16.5,36.375 q 0,-14.984375 3.828125,-22.484375 3.84375,-7.5 11.453125,-7.5 7.671875,0 11.5,7.5 3.84375,7.5 3.84375,22.484375 0,15.046875 -3.84375,22.53125 -3.828125,7.5 -11.5,7.5 z m 0,7.8125 q 12.265625,0 18.734375,-9.703125 6.46875,-9.6875 6.46875,-28.140625 0,-18.40625 -6.46875,-28.109375 -6.46875,-9.6875 -18.734375,-9.6875 -12.25,0 -18.71875,9.6875 Q 6.59375,17.96875 6.59375,36.375 q 0,18.453125 6.46875,28.140625 6.46875,9.703125 18.71875,9.703125 z"
       id="DejaVuSans-48" />
    <path
       d="m 12.40625,8.296875 h 16.109375 v 55.625 L 10.984375,60.40625 v 8.984375 l 17.4375,3.515625 H 38.28125 V 8.296875 H 54.390625 V 0 H 12.40625 Z"
       id="DejaVuSans-49" />
    <path
       d="M 19.1875,8.296875 H 53.609375 V 0 H 7.328125 v 8.296875 q 5.609375,5.8125 15.296875,15.59375 9.703125,9.796875 12.1875,12.640625 4.734375,5.3125 6.609375,9 1.890625,3.6875 1.890625,7.25 0,5.8125 -4.078125,9.46875 -4.078125,3.671875 -10.625,3.671875 -4.640625,0 -9.796875,-1.609375 -5.140625,-1.609375 -11,-4.890625 v 9.96875 Q 13.765625,71.78125 18.9375,73 q 5.1875,1.21875 9.484375,1.21875 11.328125,0 18.0625,-5.671875 6.734375,-5.65625 6.734375,-15.125 0,-4.5 -1.6875,-8.53125 Q 49.859375,40.875 45.40625,35.40625 44.1875,33.984375 37.640625,27.21875 31.109375,20.453125 19.1875,8.296875 Z"
       id="DejaVuSans-50" />
    <path
       d="M 40.578125,39.3125 Q 47.65625,37.796875 51.625,33 q 3.984375,-4.78125 3.984375,-11.8125 0,-10.78125 -7.421875,-16.703125 -7.421875,-5.90625 -21.09375,-5.90625 -4.578125,0 -9.4375,0.90625 -4.859375,0.90625 -10.03125,2.71875 v 9.515625 q 4.09375,-2.390625 8.96875,-3.609375 4.890625,-1.21875 10.21875,-1.21875 9.265625,0 14.125,3.65625 4.859375,3.65625 4.859375,10.640625 0,6.453125 -4.515625,10.078125 -4.515625,3.640625 -12.5625,3.640625 h -8.5 v 8.109375 h 8.890625 q 7.265625,0 11.125,2.90625 3.859375,2.90625 3.859375,8.375 0,5.609375 -3.984375,8.609375 -3.96875,3.015625 -11.390625,3.015625 -4.0625,0 -8.703125,-0.890625 Q 15.375,64.15625 9.8125,62.3125 v 8.78125 q 5.625,1.5625 10.53125,2.34375 4.90625,0.78125 9.25,0.78125 11.234375,0 17.765625,-5.109375 6.546875,-5.09375 6.546875,-13.78125 0,-6.0625 -3.46875,-10.234375 -3.46875,-4.171875 -9.859375,-5.78125 z"
       id="DejaVuSans-51" />
    <path
       d="M 37.796875,64.3125 12.890625,25.390625 h 24.90625 z m -2.59375,8.59375 h 12.40625 V 25.390625 h 10.40625 V 17.1875 H 47.609375 V 0 h -9.8125 V 17.1875 H 4.890625 v 9.515625 z"
       id="DejaVuSans-52" />
    <path
       d="m 10.796875,72.90625 h 38.71875 v -8.3125 h -29.6875 V 46.734375 q 2.140625,0.734375 4.28125,1.09375 2.15625,0.359375 4.3125,0.359375 Q 40.625,48.1875 47.75,41.5 54.890625,34.8125 54.890625,23.390625 54.890625,11.625 47.5625,5.09375 40.234375,-1.421875 26.90625,-1.421875 q -4.59375,0 -9.359375,0.78125 -4.75,0.78125 -9.828125,2.34375 V 11.625 q 4.390625,-2.390625 9.078125,-3.5625 4.6875,-1.171875 9.90625,-1.171875 8.453125,0 13.375,4.4375 4.9375,4.4375 4.9375,12.0625 0,7.609375 -4.9375,12.046875 -4.921875,4.453125 -13.375,4.453125 -3.953125,0 -7.890625,-0.875 -3.921875,-0.875 -8.015625,-2.734375 z"
       id="DejaVuSans-53" />
    <path
       d="m 33.015625,40.375 q -6.640625,0 -10.53125,-4.546875 -3.875,-4.53125 -3.875,-12.4375 0,-7.859375 3.875,-12.4375 3.890625,-4.5625 10.53125,-4.5625 6.640625,0 10.515625,4.5625 3.875,4.578125 3.875,12.4375 0,7.90625 -3.875,12.4375 Q 39.65625,40.375 33.015625,40.375 Z M 52.59375,71.296875 V 62.3125 q -3.71875,1.75 -7.5,2.671875 -3.78125,0.9375 -7.5,0.9375 -9.765625,0 -14.921875,-6.59375 -5.140625,-6.59375 -5.875,-19.921875 2.875,4.25 7.21875,6.515625 4.359375,2.265625 9.578125,2.265625 10.984375,0 17.359375,-6.671875 6.375,-6.65625 6.375,-18.125 0,-11.234375 -6.640625,-18.03125 -6.640625,-6.78125 -17.671875,-6.78125 -12.65625,0 -19.34375,9.6875 -6.6875,9.703125 -6.6875,28.109375 0,17.28125 8.203125,27.5625 8.203125,10.28125 22.015625,10.28125 3.71875,0 7.5,-0.734375 3.78125,-0.734375 7.890625,-2.1875 z"
       id="DejaVuSans-54" />
    <path
       d="m 8.203125,72.90625 h 46.875 V 68.703125 L 28.609375,0 H 18.3125 L 43.21875,64.59375 H 8.203125 Z"
       id="DejaVuSans-55" />
    <path
       d="M 19.671875,34.8125 V 8.109375 H 35.5 q 7.953125,0 11.78125,3.296875 3.84375,3.296875 3.84375,10.078125 0,6.84375 -3.84375,10.078125 -3.828125,3.25 -11.78125,3.25 z m 0,29.984375 V 42.828125 H 34.28125 q 7.21875,0 10.75,2.703125 3.546875,2.71875 3.546875,8.28125 0,5.515625 -3.546875,8.25 -3.53125,2.734375 -10.75,2.734375 z M 9.8125,72.90625 h 25.203125 q 11.28125,0 17.375,-4.6875 Q 58.5,63.53125 58.5,54.890625 58.5,48.1875 55.375,44.234375 52.25,40.28125 46.1875,39.3125 53.46875,37.75 57.5,32.78125 q 4.03125,-4.953125 4.03125,-12.375 0,-9.765625 -6.640625,-15.09375 Q 48.25,0 35.984375,0 H 9.8125 Z"
       id="DejaVuSans-66" />
    <path
       d="m 56.203125,29.59375 v -4.390625 h -41.3125 q 0.59375,-9.28125 5.59375,-14.140625 5,-4.859375 13.9375,-4.859375 5.171875,0 10.03125,1.265625 4.859375,1.265625 9.65625,3.8125 v -8.5 q -4.84375,-2.046875 -9.921875,-3.125 -5.078125,-1.078125 -10.296875,-1.078125 -13.09375,0 -20.734375,7.609375 -7.640625,7.625 -7.640625,20.625 0,13.421875 7.25,21.296875 Q 20.015625,56 32.328125,56 q 11.03125,0 17.453125,-7.109375 6.421875,-7.09375 6.421875,-19.296875 z m -8.984375,2.640625 q -0.09375,7.359375 -4.125,11.75 -4.03125,4.40625 -10.671875,4.40625 -7.515625,0 -12.03125,-4.25 -4.515625,-4.25 -5.203125,-11.96875 z"
       id="DejaVuSans-101" />
    <path
       d="M 18.3125,70.21875 V 54.6875 h 18.5 v -6.984375 h -18.5 v -29.6875 q 0,-6.6875 1.828125,-8.59375 1.828125,-1.90625 7.453125,-1.90625 H 36.8125 V 0 H 27.59375 Q 17.1875,0 13.234375,3.875 9.28125,7.765625 9.28125,18.015625 v 29.6875 H 2.6875 V 54.6875 h 6.59375 v 15.53125 z"
       id="DejaVuSans-116" />
    <path
       d="m 34.28125,27.484375 q -10.890625,0 -15.09375,-2.484375 -4.203125,-2.484375 -4.203125,-8.5 0,-4.78125 3.15625,-7.59375 3.15625,-2.796875 8.5625,-2.796875 7.484375,0 12,5.296875 4.515625,5.296875 4.515625,14.078125 v 2 z m 17.921875,3.71875 V 0 H 43.21875 v 8.296875 q -3.078125,-4.96875 -7.671875,-7.34375 -4.59375,-2.375 -11.234375,-2.375 -8.390625,0 -13.359375,4.71875 Q 6,8.015625 6,15.921875 q 0,9.21875 6.171875,13.90625 6.1875,4.6875 18.4375,4.6875 H 43.21875 v 0.890625 q 0,6.203125 -4.078125,9.59375 -4.078125,3.390625 -11.453125,3.390625 -4.6875,0 -9.140625,-1.125 -4.4375,-1.125 -8.53125,-3.375 v 8.3125 q 4.921875,1.90625 9.5625,2.84375 Q 24.21875,56 28.609375,56 q 11.875,0 17.734375,-6.15625 5.859375,-6.140625 5.859375,-18.640625 z"
       id="DejaVuSans-97" />
    <path
       d="M 0,0 H -3.5"
       id="m06d3aa4b16"
       style="stroke:#000000;stroke-width:0.8" />
    <path
       d="M 10.6875,12.40625 H 21 V 0 H 10.6875 Z"
       id="DejaVuSans-46" />
    <path
       d="m 31.78125,34.625 q -7.03125,0 -11.0625,-3.765625 -4.015625,-3.765625 -4.015625,-10.34375 0,-6.59375 4.015625,-10.359375 4.03125,-3.765625 11.0625,-3.765625 7.03125,0 11.078125,3.78125 4.0625,3.796875 4.0625,10.34375 0,6.578125 -4.03125,10.34375 Q 38.875,34.625 31.78125,34.625 Z m -9.859375,4.1875 Q 15.578125,40.375 12.03125,44.71875 8.5,49.078125 8.5,55.328125 q 0,8.734375 6.21875,13.8125 6.234375,5.078125 17.0625,5.078125 10.890625,0 17.09375,-5.078125 6.203125,-5.078125 6.203125,-13.8125 0,-6.25 -3.546875,-10.609375 Q 48,40.375 41.703125,38.8125 q 7.125,-1.65625 11.09375,-6.5 3.984375,-4.828125 3.984375,-11.796875 0,-10.609375 -6.46875,-16.28125 -6.46875,-5.65625 -18.53125,-5.65625 -12.046875,0 -18.53125,5.65625 -6.46875,5.671875 -6.46875,16.28125 0,6.96875 4,11.796875 4.015625,4.84375 11.140625,6.5 z M 18.3125,54.390625 q 0,-5.65625 3.53125,-8.828125 3.546875,-3.171875 9.9375,-3.171875 6.359375,0 9.9375,3.171875 3.59375,3.171875 3.59375,8.828125 0,5.671875 -3.59375,8.84375 -3.578125,3.171875 -9.9375,3.171875 -6.390625,0 -9.9375,-3.171875 Q 18.3125,60.0625 18.3125,54.390625 Z"
       id="DejaVuSans-56" />
    <path
       d="M 9.421875,75.984375 H 18.40625 V 0 H 9.421875 Z"
       id="DejaVuSans-108" />
    <path
       d="M 9.421875,54.6875 H 18.40625 V 0 H 9.421875 Z m 0,21.296875 H 18.40625 V 64.59375 H 9.421875 Z"
       id="DejaVuSans-105" />
    <path
       d="M 37.109375,75.984375 V 68.5 h -8.59375 q -4.828125,0 -6.71875,-1.953125 -1.875,-1.953125 -1.875,-7.03125 V 54.6875 H 34.71875 V 47.703125 H 19.921875 V 0 h -9.03125 V 47.703125 H 2.296875 V 54.6875 h 8.59375 V 58.5 q 0,9.125 4.25,13.296875 4.25,4.1875 13.46875,4.1875 z"
       id="DejaVuSans-102" />
    <path
       id="DejaVuSans-32"
       d="" />
    <path
       d="M 4.203125,54.6875 H 13.1875 L 24.421875,12.015625 35.59375,54.6875 H 46.1875 L 57.421875,12.015625 68.609375,54.6875 H 77.59375 L 63.28125,0 H 52.6875 L 40.921875,44.828125 29.109375,0 H 18.5 Z"
       id="DejaVuSans-119" />
    <path
       d="m 41.109375,46.296875 q -1.515625,0.875 -3.296875,1.28125 Q 36.03125,48 33.890625,48 26.265625,48 22.1875,43.046875 18.109375,38.09375 18.109375,28.8125 V 0 h -9.03125 v 54.6875 h 9.03125 v -8.5 q 2.84375,4.984375 7.375,7.390625 Q 30.03125,56 36.53125,56 q 0.921875,0 2.046875,-0.125 1.125,-0.109375 2.484375,-0.359375 z"
       id="DejaVuSans-114" />
    <path
       d="M 48.78125,52.59375 V 44.1875 q -3.8125,2.109375 -7.640625,3.15625 -3.828125,1.046875 -7.734375,1.046875 -8.75,0 -13.59375,-5.546875 -4.828125,-5.53125 -4.828125,-15.546875 0,-10.015625 4.828125,-15.5625 4.84375,-5.53125 13.59375,-5.53125 3.90625,0 7.734375,1.046875 3.828125,1.046875 7.640625,3.15625 v -8.3125 q -3.765625,-1.75 -7.796875,-2.625 -4.015625,-0.890625 -8.5625,-0.890625 -12.359375,0 -19.640625,7.765625 -7.265625,7.765625 -7.265625,20.953125 0,13.375 7.34375,21.03125 Q 20.21875,56 33.015625,56 q 4.140625,0 8.09375,-0.859375 3.953125,-0.84375 7.671875,-2.546875 z"
       id="DejaVuSans-99" />
    <path
       d="m 44.28125,53.078125 v -8.5 Q 40.484375,46.53125 36.375,47.5 q -4.09375,0.984375 -8.5,0.984375 -6.6875,0 -10.03125,-2.046875 Q 14.5,44.390625 14.5,40.28125 q 0,-3.125 2.390625,-4.90625 2.390625,-1.78125 9.625,-3.390625 l 3.078125,-0.6875 Q 39.15625,29.25 43.1875,25.515625 47.21875,21.78125 47.21875,15.09375 q 0,-7.625 -6.03125,-12.078125 -6.03125,-4.4375 -16.578125,-4.4375 -4.390625,0 -9.15625,0.859375 Q 10.6875,0.296875 5.421875,2 v 9.28125 q 4.984375,-2.59375 9.8125,-3.890625 4.828125,-1.28125 9.578125,-1.28125 6.34375,0 9.75,2.171875 3.421875,2.171875 3.421875,6.125 0,3.65625 -2.46875,5.609375 -2.453125,1.953125 -10.8125,3.765625 l -3.125,0.734375 q -8.34375,1.75 -12.0625,5.390625 -3.703125,3.640625 -3.703125,9.984375 0,7.71875 5.46875,11.90625 Q 16.75,56 26.8125,56 q 4.96875,0 9.359375,-0.734375 4.40625,-0.71875 8.109375,-2.1875 z"
       id="DejaVuSans-115" />
    <path
       d="M 54.890625,33.015625 V 0 H 45.90625 v 32.71875 q 0,7.765625 -3.03125,11.609375 -3.03125,3.859375 -9.078125,3.859375 -7.28125,0 -11.484375,-4.640625 -4.203125,-4.625 -4.203125,-12.640625 V 0 h -9.03125 v 54.6875 h 9.03125 v -8.5 q 3.234375,4.9375 7.59375,7.375 4.375,2.4375 10.09375,2.4375 9.421875,0 14.25,-5.828125 4.84375,-5.828125 4.84375,-17.15625 z"
       id="DejaVuSans-110" />
    <path
       d="m 30.609375,48.390625 q -7.21875,0 -11.421875,-5.640625 -4.203125,-5.640625 -4.203125,-15.453125 0,-9.8125 4.171875,-15.453125 4.1875,-5.640625 11.453125,-5.640625 7.1875,0 11.375,5.65625 4.203125,5.671875 4.203125,15.4375 0,9.71875 -4.203125,15.40625 -4.1875,5.6875 -11.375,5.6875 z m 0,7.609375 q 11.71875,0 18.40625,-7.625 6.703125,-7.609375 6.703125,-21.078125 0,-13.421875 -6.703125,-21.078125 -6.6875,-7.640625 -18.40625,-7.640625 -11.765625,0 -18.4375,7.640625 -6.65625,7.65625 -6.65625,21.078125 0,13.46875 6.65625,21.078125 Q 18.84375,56 30.609375,56 Z"
       id="DejaVuSans-111" />
    <path
       d="M 8.5,21.578125 V 54.6875 h 8.984375 V 21.921875 q 0,-7.765625 3.015625,-11.65625 3.03125,-3.875 9.09375,-3.875 7.265625,0 11.484375,4.640625 4.234375,4.640625 4.234375,12.65625 v 31 h 8.984375 V 0 H 45.3125 V 8.40625 Q 42.046875,3.421875 37.71875,1 33.40625,-1.421875 27.6875,-1.421875 18.265625,-1.421875 13.375,4.4375 8.5,10.296875 8.5,21.578125 Z M 31.109375,56 Z"
       id="DejaVuSans-117-9" />
    <path
       d="m 9.8125,72.90625 h 46.09375 v -8.3125 H 19.671875 V 43.015625 h 34.71875 V 34.71875 H 19.671875 V 8.296875 H 56.78125 V 0 H 9.8125 Z"
       id="DejaVuSans-69" />
    <path
       d="m 18.109375,8.203125 v -29 H 9.078125 V 54.6875 h 9.03125 v -8.296875 q 2.84375,4.875 7.15625,7.234375 Q 29.59375,56 35.59375,56 q 9.96875,0 16.1875,-7.90625 6.234375,-7.90625 6.234375,-20.796875 0,-12.890625 -6.234375,-20.8125 -6.21875,-7.90625 -16.1875,-7.90625 -6,0 -10.328125,2.375 -4.3125,2.375 -7.15625,7.25 z M 48.6875,27.296875 q 0,9.90625 -4.078125,15.546875 -4.078125,5.640625 -11.203125,5.640625 -7.140625,0 -11.21875,-5.640625 -4.078125,-5.640625 -4.078125,-15.546875 0,-9.90625 4.078125,-15.546875 4.078125,-5.640625 11.21875,-5.640625 7.125,0 11.203125,5.640625 4.078125,5.640625 4.078125,15.546875 z"
       id="DejaVuSans-112" />
    <path
       d="M 32.171875,-5.078125 Q 28.375,-14.84375 24.75,-17.8125 q -3.609375,-2.984375 -9.65625,-2.984375 h -7.1875 v 7.515625 h 5.28125 q 3.703125,0 5.75,1.765625 2.0625,1.75 4.546875,8.296875 L 25.09375,0.875 2.984375,54.6875 H 12.5 L 29.59375,11.921875 46.6875,54.6875 h 9.515625 z"
       id="DejaVuSans-121" />
    <path
       d="M 8.5,21.578125 V 54.6875 h 8.984375 V 21.921875 q 0,-7.765625 3.015625,-11.65625 3.03125,-3.875 9.09375,-3.875 7.265625,0 11.484375,4.640625 4.234375,4.640625 4.234375,12.65625 v 31 h 8.984375 V 0 H 45.3125 V 8.40625 Q 42.046875,3.421875 37.71875,1 33.40625,-1.421875 27.6875,-1.421875 18.265625,-1.421875 13.375,4.4375 8.5,10.296875 8.5,21.578125 Z M 31.109375,56 Z"
       id="DejaVuSans-117" />
    <clipPath
       id="p95274c6e2d">
      <rect
         height="291.16"
         width="289.555"
         x="47.72"
         y="26.88"
         id="rect985" />
    </clipPath>
    <clipPath
       id="p433d9f93fb">
      <rect
         height="291.16"
         width="289.555"
         x="402.32"
         y="26.88"
         id="rect988" />
    </clipPath>
  </defs>
  <sodipodi:namedview
     id="base"
     pagecolor="#ffffff"
     bordercolor="#666666"
     borderopacity="1.0"
     inkscape:pageopacity="0.0"
     inkscape:pageshadow="2"
     inkscape:zoom="0.7"
     inkscape:cx="425.37306"
     inkscape:cy="462.39486"
     inkscape:document-units="mm"
     inkscape:current-layer="layer1"
     inkscape:document-rotation="0"
     showgrid="false"
     inkscape:window-width="1920"
     inkscape:window-height="1052"
     inkscape:window-x="0"
     inkscape:window-y="0"
     inkscape:window-maximized="1" />
  <metadata
     id="metadata5">
    <rdf:RDF>
      <cc:Work
         rdf:about="">
        <dc:format>image/svg+xml</dc:format>
        <dc:type
           rdf:resource="http://purl.org/dc/dcmitype/StillImage" />
        <dc:title></dc:title>
      </cc:Work>
    </rdf:RDF>
  </metadata>
  <g
     inkscape:label="Layer 1"
     inkscape:groupmode="layer"
     id="layer1">
    <g
       style="stroke-linecap:butt;stroke-linejoin:round"
       id="g437"
       transform="matrix(0.35277778,0,0,0.35277778,-10.643473,73.495423)">
      <g
         id="PolyCollection_1"
         transform="translate(12.43762)">
        <path
           clip-path="url(#p95274c6e2d)"
           d="m 47.72,220.98667 v 0 l 72.38875,70.49783 72.38875,22.94318 72.38875,3.19405 72.38875,0.37088 v 0 0 l -72.38875,-0.37088 -72.38875,-3.19405 -72.38875,-22.94318 z"
           style="fill:#1f77b4"
           id="path14" />
      </g>
      <g
         id="PolyCollection_2"
         transform="translate(12.43762)">
        <path
           clip-path="url(#p95274c6e2d)"
           d="m 47.72,220.98667 v 0 l 72.38875,-53.87713 72.38875,-17.78104 72.38875,-10.08362 72.38875,-6.96907 v -1.6838 0 l -72.38875,7.14259 -72.38875,10.33781 -72.38875,17.922 z"
           style="fill:#ff7f0e"
           id="path17" />
      </g>
      <g
         id="PolyCollection_3"
         transform="translate(12.43762)">
        <path
           clip-path="url(#p95274c6e2d)"
           d="m 47.72,220.98667 v 0 l 72.38875,-55.75261 72.38875,-19.47523 72.38875,-11.11928 72.38875,-7.47662 v -2.81694 0 l -72.38875,8.08558 -72.38875,11.78071 -72.38875,20.04271 z"
           style="fill:#2ca02c"
           id="path20" />
      </g>
      <g
         id="line2d_3"
         transform="translate(12.43762)">
        <g
           id="g77">
          <path
             d="m 120.10875,318.04001 v 3.5"
             id="use75"
             style="stroke:#000000;stroke-width:0.8" />
        </g>
      </g>
      <g
         id="line2d_5"
         transform="translate(12.43762)">
        <g
           id="g122">
          <path
             d="m 192.4975,318.04001 v 3.5"
             id="use120"
             style="stroke:#000000;stroke-width:0.8" />
        </g>
      </g>
      <g
         id="line2d_7"
         transform="translate(12.43762)">
        <g
           id="g167">
          <path
             d="m 264.88626,318.04001 v 3.5"
             id="use165"
             style="stroke:#000000;stroke-width:0.8" />
        </g>
      </g>
      <g
         id="line2d_9"
         transform="translate(12.43762)">
        <g
           id="g212">
          <path
             d="m 337.27499,318.04001 v 3.5"
             id="use210"
             style="stroke:#000000;stroke-width:0.8" />
        </g>
      </g>
      <g
         id="line2d_16"
         style="stroke-width:3.75;stroke-miterlimit:4;stroke-dasharray:none"
         transform="translate(12.43762)">
        <path
           clip-path="url(#p95274c6e2d)"
           d="m 47.72,220.98667 72.38875,70.49783 72.38875,22.94318 72.38875,3.19405 72.38875,0.37088"
           style="fill:none;stroke:#b3b3b3;stroke-width:3.75;stroke-linecap:square;stroke-miterlimit:4;stroke-dasharray:none"
           id="path372" />
      </g>
      <g
         id="line2d_17"
         style="stroke-width:3.75;stroke-miterlimit:4;stroke-dasharray:none"
         transform="translate(12.43762)">
        <path
           clip-path="url(#p95274c6e2d)"
           d="m 47.72,220.98667 72.38875,-54.43469 72.38875,-17.85153 72.38875,-10.21071 72.38875,-7.05583"
           style="fill:none;stroke:#666666;stroke-width:3.75;stroke-linecap:square;stroke-miterlimit:4;stroke-dasharray:none"
           id="path375" />
      </g>
      <path
         clip-path="url(#p95274c6e2d)"
         d="m 47.72,220.98667 72.38875,-56.24215 72.38875,-19.75896 72.38875,-11.45 72.38875,-7.7811"
         style="fill:none;fill-opacity:1;stroke:#ff9900;stroke-width:3.75;stroke-linecap:square;stroke-miterlimit:4;stroke-dasharray:none;stroke-dashoffset:0;stroke-opacity:1"
         id="path378"
         transform="translate(12.43762)" />
      <g
         id="patch_3"
         transform="translate(12.43762)">
        <path
           d="M 47.72,318.04 V 26.88"
           style="fill:none;stroke:#000000;stroke-width:0.8;stroke-linecap:square;stroke-linejoin:miter"
           id="path381" />
      </g>
      <path
         d="m 60.15762,318.04 h 289.555"
         style="fill:none;stroke:#000000;stroke-width:0.8;stroke-linecap:square;stroke-linejoin:miter"
         id="path387" />
      <g
         id="line2d_20" />
      <g
         id="line2d_22" />
      <g
         id="line2d_24" />
      <g
         id="text_21"
         style="stroke-width:2.625;stroke-miterlimit:4;stroke-dasharray:none">
        <!-- counterfactuals -->
        <g
           transform="matrix(0.1,0,0,-0.1,250.27812,72.834687)"
           id="g517"
           style="stroke-width:26.25;stroke-miterlimit:4;stroke-dasharray:none">
          <defs
             id="defs485">
            <path
               d="M 8.5,21.578125 V 54.6875 h 8.984375 V 21.921875 q 0,-7.765625 3.015625,-11.65625 3.03125,-3.875 9.09375,-3.875 7.265625,0 11.484375,4.640625 4.234375,4.640625 4.234375,12.65625 v 31 h 8.984375 V 0 H 45.3125 V 8.40625 Q 42.046875,3.421875 37.71875,1 33.40625,-1.421875 27.6875,-1.421875 18.265625,-1.421875 13.375,4.4375 8.5,10.296875 8.5,21.578125 Z M 31.109375,56 Z"
               id="path319" />
          </defs>
        </g>
      </g>
      <g
         id="patch_2" />
      <g
         id="line2d_11"
         transform="translate(12.43762)">
        <g
           id="g272">
          <path
             d="m 47.720001,259.80801 h -3.5"
             id="use270"
             style="stroke:#000000;stroke-width:0.8" />
        </g>
      </g>
      <g
         id="line2d_12"
         transform="translate(12.43762)">
        <g
           id="g287">
          <path
             d="m 47.720001,201.576 h -3.5"
             id="use285"
             style="stroke:#000000;stroke-width:0.8" />
        </g>
      </g>
      <g
         id="line2d_13"
         transform="translate(12.43762)">
        <g
           id="g302">
          <path
             d="m 47.720001,143.34399 h -3.5"
             id="use300"
             style="stroke:#000000;stroke-width:0.8" />
        </g>
      </g>
      <g
         id="line2d_14"
         transform="translate(12.43762)">
        <g
           id="g320">
          <path
             d="m 47.720001,85.112 h -3.5"
             id="use318"
             style="stroke:#000000;stroke-width:0.8" />
        </g>
      </g>
      <g
         id="line2d_15"
         transform="translate(12.43762)">
        <g
           id="g338">
          <path
             d="m 47.720001,26.879999 h -3.5"
             id="use336"
             style="stroke:#000000;stroke-width:0.8" />
        </g>
      </g>
      <g
         id="patch_8" />
      <g
         id="PolyCollection_4"
         transform="translate(12.43762)">
        <path
           clip-path="url(#p433d9f93fb)"
           d="m 402.32,40.114545 v 0 l 72.38875,114.947375 72.38875,115.41464 72.38875,29.20146 72.38875,5.12743 v 0 0 L 619.48625,299.67802 547.0975,270.47656 474.70875,155.06192 Z"
           style="fill:#1f77b4"
           id="path525" />
      </g>
      <g
         id="PolyCollection_5"
         transform="translate(12.43762)">
        <path
           clip-path="url(#p433d9f93fb)"
           d="m 402.32,40.114545 v 0 l 72.38875,62.645995 72.38875,31.63273 72.38875,9.18633 72.38875,4.36245 v -0.88238 0 l -72.38875,-4.29308 -72.38875,-9.59546 -72.38875,-32.67861 z"
           style="fill:#ff7f0e"
           id="path528" />
      </g>
      <g
         id="PolyCollection_6"
         transform="translate(12.43762)">
        <path
           clip-path="url(#p433d9f93fb)"
           d="m 402.32,40.114545 v 0 l 72.38875,62.006625 72.38875,33.07434 72.38875,10.58346 72.38875,5.4727 v -1.50572 0 L 619.48625,144.7518 547.0975,134.19159 474.70875,100.33361 Z"
           style="fill:#2ca02c"
           id="path531" />
      </g>
      <g
         id="line2d_27"
         transform="translate(12.43762)">
        <g
           id="g578">
          <path
             d="m 474.70874,318.04001 v 3.5"
             id="use576"
             style="stroke:#000000;stroke-width:0.8" />
        </g>
      </g>
      <g
         id="line2d_29"
         transform="translate(12.43762)">
        <g
           id="g620">
          <path
             d="m 547.09747,318.04001 v 3.5"
             id="use618"
             style="stroke:#000000;stroke-width:0.8" />
        </g>
      </g>
      <g
         id="line2d_31"
         transform="translate(12.43762)">
        <g
           id="g662">
          <path
             d="m 619.48627,318.04001 v 3.5"
             id="use660"
             style="stroke:#000000;stroke-width:0.8" />
        </g>
      </g>
      <g
         id="line2d_33"
         transform="translate(12.43762)">
        <g
           id="g704">
          <path
             d="m 691.875,318.04001 v 3.5"
             id="use702"
             style="stroke:#000000;stroke-width:0.8" />
        </g>
      </g>
      <g
         id="line2d_35"
         transform="translate(12.43762)">
        <g
           id="g752">
          <path
             d="m 402.32001,257.38934 h -3.5"
             id="use750"
             style="stroke:#000000;stroke-width:0.8" />
        </g>
      </g>
      <g
         id="line2d_36"
         transform="translate(12.43762)">
        <g
           id="g767">
          <path
             d="m 402.32001,209.03148 h -3.5"
             id="use765"
             style="stroke:#000000;stroke-width:0.8" />
        </g>
      </g>
      <g
         id="line2d_37"
         transform="translate(12.43762)">
        <g
           id="g782">
          <path
             d="m 402.32001,160.67363 h -3.5"
             id="use780"
             style="stroke:#000000;stroke-width:0.8" />
        </g>
      </g>
      <g
         id="line2d_38"
         transform="translate(12.43762)">
        <g
           id="g797">
          <path
             d="m 402.32001,112.31579 h -3.5"
             id="use795"
             style="stroke:#000000;stroke-width:0.8" />
        </g>
      </g>
      <g
         id="line2d_39"
         transform="translate(12.43762)">
        <g
           id="g812">
          <path
             d="m 402.32001,63.957935 h -3.5"
             id="use810"
             style="stroke:#000000;stroke-width:0.8" />
        </g>
      </g>
      <path
         clip-path="url(#p433d9f93fb)"
         d="m 402.32,40.114545 72.38875,114.947375 72.38875,115.41464 72.38875,29.20146 72.38875,5.12743"
         style="fill:none;stroke:#b3b3b3;stroke-width:3.75;stroke-linecap:square;stroke-miterlimit:4;stroke-dasharray:none"
         id="path848"
         transform="translate(12.43762)" />
      <g
         id="line2d_41"
         style="stroke-width:3.75;stroke-miterlimit:4;stroke-dasharray:none"
         transform="translate(12.43762)">
        <path
           clip-path="url(#p433d9f93fb)"
           d="m 402.32,40.114545 72.38875,61.511985 72.38875,32.15567 72.38875,9.39089 72.38875,4.32777"
           style="fill:none;stroke:#666666;stroke-width:3.75;stroke-linecap:square;stroke-miterlimit:4;stroke-dasharray:none"
           id="path851" />
      </g>
      <g
         id="line2d_42"
         style="stroke-width:3.75;stroke-miterlimit:4;stroke-dasharray:none"
         transform="translate(12.43762)">
        <path
           clip-path="url(#p433d9f93fb)"
           d="m 402.32,40.114545 72.38875,61.112845 72.38875,33.46616 72.38875,10.57183 72.38875,5.23343"
           style="fill:none;stroke:#ff9900;stroke-width:3.75;stroke-linecap:square;stroke-miterlimit:4;stroke-dasharray:none"
           id="path854" />
      </g>
      <g
         id="patch_9"
         transform="translate(12.43762)">
        <path
           d="M 402.32,318.04 V 26.88"
           style="fill:none;stroke:#000000;stroke-width:0.8;stroke-linecap:square;stroke-linejoin:miter"
           id="path857" />
      </g>
      <g
         id="patch_11"
         transform="translate(12.43762)">
        <path
           d="M 402.32,318.04 H 691.875"
           style="fill:none;stroke:#000000;stroke-width:0.8;stroke-linecap:square;stroke-linejoin:miter"
           id="path863" />
      </g>
      <text
         xml:space="preserve"
         id="text5235"
         style="font-style:normal;font-weight:normal;font-size:30px;line-height:1.25;font-family:sans-serif;white-space:pre;shape-inside:url(#rect5237);fill:#000000;fill-opacity:1;stroke:none;" />
      <text
         xml:space="preserve"
         id="text5241"
         style="font-style:normal;font-weight:normal;font-size:30px;line-height:1.25;font-family:sans-serif;white-space:pre;shape-inside:url(#rect5243);fill:#000000;fill-opacity:1;stroke:none;" />
      <text
         xml:space="preserve"
         style="font-size:15px;line-height:1.25;font-family:'Palatino Linotype';-inkscape-font-specification:'Palatino Linotype';fill:#000000;fill-opacity:0.74902;stroke-width:0.75;stroke-linecap:butt;stroke-linejoin:round"
         x="34.878304"
         y="271.61121"
         id="text8476-1"><tspan
           sodipodi:role="line"
           id="tspan8474-0"
           x="34.878304"
           y="271.61121"
           style="font-size:15px;fill:#000000;fill-opacity:0.74902;stroke-width:0.75">0.2</tspan></text>
      <text
         xml:space="preserve"
         style="font-size:30px;line-height:1.25;font-family:'Palatino Linotype';-inkscape-font-specification:'Palatino Linotype';stroke-width:0.75"
         x="18.566643"
         y="167.09979"
         id="text8896"><tspan
           sodipodi:role="line"
           id="tspan8894"
           x="18.566643"
           y="167.09979"
           style="stroke-width:0.75" /></text>
      <text
         xml:space="preserve"
         style="font-size:15px;line-height:1.25;font-family:'Palatino Linotype';-inkscape-font-specification:'Palatino Linotype';fill:#000000;fill-opacity:0.74902;stroke-width:0.75;stroke-linecap:butt;stroke-linejoin:round"
         x="34.878304"
         y="212.77841"
         id="text8476-1-7"
         inkscape:transform-center-x="0.48859584"
         inkscape:transform-center-y="0.48859586"><tspan
           sodipodi:role="line"
           id="tspan8474-0-7"
           x="34.878304"
           y="212.77841"
           style="font-size:15px;fill:#000000;fill-opacity:0.74902;stroke-width:0.75">0.4</tspan></text>
      <text
         xml:space="preserve"
         style="font-size:15px;line-height:1.25;font-family:'Palatino Linotype';-inkscape-font-specification:'Palatino Linotype';fill:#000000;fill-opacity:0.74902;stroke-width:0.75;stroke-linecap:butt;stroke-linejoin:round"
         x="34.878304"
         y="153.94556"
         id="text8476-1-3"><tspan
           sodipodi:role="line"
           id="tspan8474-0-1"
           x="34.878304"
           y="153.94556"
           style="font-size:15px;fill:#000000;fill-opacity:0.74902;stroke-width:0.75">0.6</tspan></text>
      <text
         xml:space="preserve"
         style="font-size:15px;line-height:1.25;font-family:'Palatino Linotype';-inkscape-font-specification:'Palatino Linotype';fill:#000000;fill-opacity:0.74902;stroke-width:0.75;stroke-linecap:butt;stroke-linejoin:round"
         x="34.878304"
         y="95.112724"
         id="text8476-1-8"><tspan
           sodipodi:role="line"
           id="tspan8474-0-0"
           x="34.878304"
           y="95.112724"
           style="font-size:15px;fill:#000000;fill-opacity:0.74902;stroke-width:0.75">0.8</tspan></text>
      <text
         xml:space="preserve"
         style="font-size:15px;line-height:1.25;font-family:'Palatino Linotype';-inkscape-font-specification:'Palatino Linotype';fill:#000000;fill-opacity:0.74902;stroke-width:0.75;stroke-linecap:butt;stroke-linejoin:round"
         x="34.416878"
         y="36.2799"
         id="text8476-1-2"><tspan
           sodipodi:role="line"
           id="tspan8474-0-04"
           x="34.416878"
           y="36.2799"
           style="font-size:15px;fill:#000000;fill-opacity:0.74902;stroke-width:0.75">1.0</tspan></text>
      <text
         xml:space="preserve"
         style="font-size:24px;line-height:1.25;font-family:'Palatino Linotype';-inkscape-font-specification:'Palatino Linotype';fill:#666666;fill-opacity:1;stroke-width:0.75"
         x="-219.5786"
         y="22.995113"
         id="text8942"
         transform="rotate(-90)"><tspan
           sodipodi:role="line"
           id="tspan8940"
           x="-219.5786"
           y="22.995113"
           style="font-size:24px;fill:#666666;fill-opacity:1;stroke-width:0.75">Belief(r)</tspan></text>
      <g
         id="g9540"
         transform="translate(12.43762)">
        <text
           xml:space="preserve"
           style="font-size:15px;line-height:1.25;font-family:'Palatino Linotype';-inkscape-font-specification:'Palatino Linotype';fill:#000000;fill-opacity:0.74902;stroke-width:0.75"
           x="22.440685"
           y="330.76236"
           id="text8476"><tspan
             sodipodi:role="line"
             id="tspan8474"
             x="22.440685"
             y="330.76236"
             style="font-size:15px;fill:#000000;fill-opacity:0.74902;stroke-width:0.75">0.0</tspan></text>
        <text
           xml:space="preserve"
           style="font-size:15px;line-height:1.25;font-family:'Palatino Linotype';-inkscape-font-specification:'Palatino Linotype';fill:#000000;fill-opacity:0.74902;stroke-width:0.75;stroke-linecap:butt;stroke-linejoin:round"
           x="311.97409"
           y="330.8063"
           id="text8476-4"><tspan
             sodipodi:role="line"
             id="tspan8474-04"
             x="311.97409"
             y="330.8063"
             style="font-size:15px;fill:#000000;fill-opacity:0.74902;stroke-width:0.75">0.04</tspan></text>
        <text
           xml:space="preserve"
           style="font-size:15px;line-height:1.25;font-family:'Palatino Linotype';-inkscape-font-specification:'Palatino Linotype';fill:#000000;fill-opacity:0.74902;stroke-width:0.75;stroke-linecap:butt;stroke-linejoin:round"
           x="238.72101"
           y="330.79166"
           id="text8476-4-5"><tspan
             sodipodi:role="line"
             id="tspan8474-04-7"
             x="238.72101"
             y="330.79166"
             style="font-size:15px;fill:#000000;fill-opacity:0.74902;stroke-width:0.75">0.03</tspan></text>
        <text
           xml:space="preserve"
           style="font-size:15px;line-height:1.25;font-family:'Palatino Linotype';-inkscape-font-specification:'Palatino Linotype';fill:#000000;fill-opacity:0.74902;stroke-width:0.75;stroke-linecap:butt;stroke-linejoin:round"
           x="165.34705"
           y="330.76236"
           id="text8476-4-9"><tspan
             sodipodi:role="line"
             id="tspan8474-04-9"
             x="165.34705"
             y="330.76236"
             style="font-size:15px;fill:#000000;fill-opacity:0.74902;stroke-width:0.75">0.02</tspan></text>
        <text
           xml:space="preserve"
           style="font-size:15px;line-height:1.25;font-family:'Palatino Linotype';-inkscape-font-specification:'Palatino Linotype';fill:#000000;fill-opacity:0.74902;stroke-width:0.75;stroke-linecap:butt;stroke-linejoin:round"
           x="92.386909"
           y="330.84293"
           id="text8476-4-96"><tspan
             sodipodi:role="line"
             id="tspan8474-04-8"
             x="92.386909"
             y="330.84293"
             style="font-size:15px;fill:#000000;fill-opacity:0.74902;stroke-width:0.75">0.01</tspan></text>
        <text
           xml:space="preserve"
           style="font-size:24px;line-height:1.25;font-family:'Palatino Linotype';-inkscape-font-specification:'Palatino Linotype';fill:#666666;fill-opacity:1;stroke-width:0.75;stroke-linecap:butt;stroke-linejoin:round"
           x="170.06564"
           y="354.85645"
           id="text8942-5"><tspan
             sodipodi:role="line"
             id="tspan8940-8"
             x="170.06564"
             y="354.85645"
             style="font-size:24px;fill:#666666;fill-opacity:1;stroke-width:0.75">Beta</tspan></text>
      </g>
      <g
         id="g9526"
         transform="translate(12.43762,1.3339386)">
        <text
           xml:space="preserve"
           style="font-size:15px;line-height:1.25;font-family:'Palatino Linotype';-inkscape-font-specification:'Palatino Linotype';fill:#000000;fill-opacity:0.74902;stroke-width:0.75;stroke-linecap:butt;stroke-linejoin:round"
           x="375.52203"
           y="329.42844"
           id="text8476-5"><tspan
             sodipodi:role="line"
             id="tspan8474-09"
             x="375.52203"
             y="329.42844"
             style="font-size:15px;fill:#000000;fill-opacity:0.74902;stroke-width:0.75">0.0</tspan></text>
        <text
           xml:space="preserve"
           style="font-size:15px;line-height:1.25;font-family:'Palatino Linotype';-inkscape-font-specification:'Palatino Linotype';fill:#000000;fill-opacity:0.74902;stroke-width:0.75;stroke-linecap:butt;stroke-linejoin:round"
           x="665.05542"
           y="329.47238"
           id="text8476-4-4"><tspan
             sodipodi:role="line"
             id="tspan8474-04-77"
             x="665.05542"
             y="329.47238"
             style="font-size:15px;fill:#000000;fill-opacity:0.74902;stroke-width:0.75">0.04</tspan></text>
        <text
           xml:space="preserve"
           style="font-size:15px;line-height:1.25;font-family:'Palatino Linotype';-inkscape-font-specification:'Palatino Linotype';fill:#000000;fill-opacity:0.74902;stroke-width:0.75;stroke-linecap:butt;stroke-linejoin:round"
           x="591.80237"
           y="329.4577"
           id="text8476-4-5-3"><tspan
             sodipodi:role="line"
             id="tspan8474-04-7-2"
             x="591.80237"
             y="329.4577"
             style="font-size:15px;fill:#000000;fill-opacity:0.74902;stroke-width:0.75">0.03</tspan></text>
        <text
           xml:space="preserve"
           style="font-size:15px;line-height:1.25;font-family:'Palatino Linotype';-inkscape-font-specification:'Palatino Linotype';fill:#000000;fill-opacity:0.74902;stroke-width:0.75;stroke-linecap:butt;stroke-linejoin:round"
           x="518.42841"
           y="329.42844"
           id="text8476-4-9-2"><tspan
             sodipodi:role="line"
             id="tspan8474-04-9-3"
             x="518.42841"
             y="329.42844"
             style="font-size:15px;fill:#000000;fill-opacity:0.74902;stroke-width:0.75">0.02</tspan></text>
        <text
           xml:space="preserve"
           style="font-size:15px;line-height:1.25;font-family:'Palatino Linotype';-inkscape-font-specification:'Palatino Linotype';fill:#000000;fill-opacity:0.74902;stroke-width:0.75;stroke-linecap:butt;stroke-linejoin:round"
           x="445.46826"
           y="329.509"
           id="text8476-4-96-0"><tspan
             sodipodi:role="line"
             id="tspan8474-04-8-3"
             x="445.46826"
             y="329.509"
             style="font-size:15px;fill:#000000;fill-opacity:0.74902;stroke-width:0.75">0.01</tspan></text>
        <text
           xml:space="preserve"
           style="font-size:24px;line-height:1.25;font-family:'Palatino Linotype';-inkscape-font-specification:'Palatino Linotype';fill:#666666;fill-opacity:1;stroke-width:0.75;stroke-linecap:butt;stroke-linejoin:round"
           x="523.14697"
           y="353.52252"
           id="text8942-5-3"><tspan
             sodipodi:role="line"
             id="tspan8940-8-9"
             x="523.14697"
             y="353.52252"
             style="font-size:24px;fill:#666666;fill-opacity:1;stroke-width:0.75">Beta</tspan></text>
      </g>
      <text
         xml:space="preserve"
         style="font-size:24px;line-height:1.25;font-family:'Palatino Linotype';-inkscape-font-specification:'Palatino Linotype';fill:#666666;fill-opacity:1;stroke-width:0.75;stroke-linecap:butt;stroke-linejoin:round"
         x="-233.44188"
         y="382.84222"
         id="text8942-6"
         transform="rotate(-90)"><tspan
           sodipodi:role="line"
           id="tspan8940-1"
           x="-233.44188"
           y="382.84222"
           style="font-size:24px;fill:#666666;fill-opacity:1;stroke-width:0.75">Entropy(r)</tspan></text>
      <text
         xml:space="preserve"
         style="font-size:15px;line-height:1.25;font-family:'Palatino Linotype';-inkscape-font-specification:'Palatino Linotype';fill:#000000;fill-opacity:0.74902;stroke-width:0.75;stroke-linecap:butt;stroke-linejoin:round"
         x="390.00858"
         y="288.78473"
         id="text8476-1-5"><tspan
           sodipodi:role="line"
           id="tspan8474-0-5"
           x="390.00858"
           y="288.78473"
           style="font-size:15px;fill:#000000;fill-opacity:0.74902;stroke-width:0.75">0.2</tspan></text>
      <text
         xml:space="preserve"
         style="font-size:15px;line-height:1.25;font-family:'Palatino Linotype';-inkscape-font-specification:'Palatino Linotype';fill:#000000;fill-opacity:0.74902;stroke-width:0.75;stroke-linecap:butt;stroke-linejoin:round"
         x="390.00858"
         y="234.74101"
         id="text8476-1-7-0"
         inkscape:transform-center-x="0.48859584"
         inkscape:transform-center-y="0.48859586"><tspan
           sodipodi:role="line"
           id="tspan8474-0-7-8"
           x="390.00858"
           y="234.74101"
           style="font-size:15px;fill:#000000;fill-opacity:0.74902;stroke-width:0.75">0.4</tspan></text>
      <text
         xml:space="preserve"
         style="font-size:15px;line-height:1.25;font-family:'Palatino Linotype';-inkscape-font-specification:'Palatino Linotype';fill:#000000;fill-opacity:0.74902;stroke-width:0.75;stroke-linecap:butt;stroke-linejoin:round"
         x="390.00858"
         y="180.68997"
         id="text8476-1-3-5"><tspan
           sodipodi:role="line"
           id="tspan8474-0-1-8"
           x="390.00858"
           y="180.68997"
           style="font-size:15px;fill:#000000;fill-opacity:0.74902;stroke-width:0.75">0.6</tspan></text>
      <text
         xml:space="preserve"
         style="font-size:15px;line-height:1.25;font-family:'Palatino Linotype';-inkscape-font-specification:'Palatino Linotype';fill:#000000;fill-opacity:0.74902;stroke-width:0.75;stroke-linecap:butt;stroke-linejoin:round"
         x="390.00858"
         y="126.58765"
         id="text8476-1-8-0"><tspan
           sodipodi:role="line"
           id="tspan8474-0-0-9"
           x="390.00858"
           y="126.58765"
           style="font-size:15px;fill:#000000;fill-opacity:0.74902;stroke-width:0.75">0.8</tspan></text>
      <text
         xml:space="preserve"
         style="font-size:15px;line-height:1.25;font-family:'Palatino Linotype';-inkscape-font-specification:'Palatino Linotype';fill:#000000;fill-opacity:0.74902;stroke-width:0.75;stroke-linecap:butt;stroke-linejoin:round"
         x="389.54715"
         y="72.562233"
         id="text8476-1-2-0"><tspan
           sodipodi:role="line"
           id="tspan8474-0-04-2"
           x="389.54715"
           y="72.562233"
           style="font-size:15px;fill:#000000;fill-opacity:0.74902;stroke-width:0.75">1.0</tspan></text>
    </g>
  </g>
</svg>
